<svg width="375" height="375" viewBox="0 0 375 375" fill="none" xmlns="http://www.w3.org/2000/svg">
<g clip-path="url(#clip0_19255_960)">
<rect width="375" height="375" rx="10" fill="#010C15"/>
<path d="M61 220.365V214.403H97.5714V220.365H61Z" fill="white"/>
<path d="M134.187 181.599C134.187 177.357 133.749 173.968 132.871 171.432C131.993 168.872 130.835 166.946 129.397 165.654C127.982 164.362 126.41 163.496 124.679 163.057C122.972 162.618 121.266 162.399 119.559 162.399H114.183V201.384H119.632C121.412 201.384 123.167 201.104 124.898 200.543C126.629 199.982 128.19 198.982 129.579 197.544C130.969 196.106 132.078 194.094 132.907 191.51C133.761 188.925 134.187 185.622 134.187 181.599ZM141.867 181.599C141.867 185.792 141.416 189.364 140.514 192.314C139.637 195.264 138.418 197.702 136.857 199.629C135.321 201.555 133.566 203.066 131.591 204.163C129.616 205.236 127.531 205.992 125.337 206.431C123.143 206.845 120.973 207.053 118.827 207.053H106.942V156.657H118.023C120.997 156.657 123.899 156.986 126.727 157.645C129.579 158.278 132.139 159.485 134.407 161.265C136.699 163.045 138.515 165.568 139.856 168.835C141.197 172.102 141.867 176.357 141.867 181.599Z" fill="white"/>
<path d="M184.847 168.506L171.389 207.272C170.462 210.003 169.267 212.465 167.805 214.659C166.342 216.854 164.452 218.646 162.136 220.035C159.844 221.45 156.955 222.327 153.469 222.669L152.481 217.219C155.114 216.805 157.199 216.171 158.735 215.318C160.295 214.464 161.514 213.355 162.392 211.99C163.294 210.624 164.099 208.979 164.806 207.053H162.429L149.153 168.506H156.65L167.146 201.933L177.606 168.506H184.847Z" fill="white"/>
<path d="M211.735 153V197.105C211.735 198.958 212.308 200.275 213.454 201.055C214.6 201.811 216.075 202.189 217.879 202.189C219.025 202.189 220.11 202.067 221.134 201.823C222.158 201.579 223.182 201.262 224.206 200.872L226.034 205.882C224.962 206.419 223.621 206.894 222.011 207.309C220.402 207.747 218.586 207.967 216.562 207.967C212.954 207.967 210.077 206.955 207.931 204.931C205.786 202.908 204.713 200.128 204.713 196.593V158.339H192.974V153H211.735Z" fill="white"/>
<path d="M268.173 198.202C268.173 199.738 268.416 200.86 268.904 201.567C269.392 202.25 270.16 202.762 271.208 203.103L269.562 207.93C267.807 207.711 266.283 207.187 264.991 206.358C263.699 205.529 262.736 204.261 262.102 202.554C260.712 204.334 258.957 205.687 256.835 206.614C254.714 207.516 252.41 207.967 249.923 207.967C246.047 207.967 242.987 206.87 240.744 204.675C238.501 202.481 237.379 199.592 237.379 196.008C237.379 191.985 238.94 188.901 242.061 186.755C245.206 184.61 249.716 183.537 255.592 183.537H261.187V180.611C261.187 177.954 260.395 176.064 258.81 174.943C257.25 173.821 255.068 173.261 252.264 173.261C250.996 173.261 249.485 173.419 247.729 173.736C245.974 174.053 244.109 174.553 242.134 175.235L240.342 170.115C242.731 169.213 245.011 168.567 247.181 168.177C249.375 167.787 251.423 167.592 253.325 167.592C258.298 167.592 262.016 168.726 264.479 170.993C266.941 173.236 268.173 176.32 268.173 180.246V198.202ZM251.898 202.701C253.702 202.701 255.433 202.237 257.091 201.311C258.749 200.384 260.115 199.092 261.187 197.434V188.109H256.067C251.996 188.109 249.107 188.803 247.4 190.193C245.693 191.558 244.84 193.436 244.84 195.825C244.84 198.068 245.425 199.775 246.595 200.945C247.766 202.115 249.533 202.701 251.898 202.701Z" fill="white"/>
<path d="M283.614 207.053V168.506H289.648L290.16 173.699C291.745 171.725 293.671 170.213 295.938 169.165C298.23 168.116 300.51 167.592 302.777 167.592C306.483 167.592 309.214 168.604 310.969 170.627C312.725 172.627 313.602 175.418 313.602 179.002V207.053H306.581V183.318C306.581 180.88 306.434 178.905 306.142 177.393C305.874 175.857 305.301 174.748 304.423 174.065C303.545 173.382 302.216 173.041 300.437 173.041C299.047 173.041 297.73 173.346 296.487 173.955C295.243 174.565 294.122 175.333 293.122 176.259C292.147 177.186 291.318 178.149 290.635 179.149V207.053H283.614Z" fill="white"/>
</g>
<defs>
<clipPath id="clip0_19255_960">
<rect width="375" height="375" fill="white"/>
</clipPath>
</defs>
</svg>
